<?xml version="1.0" encoding="utf-8"?>
<svg version="1.1" id="main" xmlns="http://www.w3.org/2000/svg" xmlns:xlink="http://www.w3.org/1999/xlink" x="0px" y="0px"
	 viewBox="0 0 1000 1000" style="enable-background:new 0 0 1000 1000;" xml:space="preserve">
<style type="text/css">
	.st0{fill:#FFFFFF;}
</style>
<circle class="st0" cx="500" cy="500" r="479.4"/>
<path d="M434,291.8c29.5,6.4,52.3,19,68.1,37.6c13.5,16.5,21.9,36.2,25,58.9H628l-61.2,348.7h111.9l61.2-348.7h111.7l17.3-96.4H434z
	"/>
<path d="M382.7,291.8c54,0,92.5,13.6,115.6,40.8c16.9,20.6,25.3,46.4,25.3,77.3c0,11.1-1,22.9-3.1,35.2L496.4,583
	c-8.3,46.6-28.4,83.9-60.6,111.9c-32.1,28-73.8,42-124.9,42H131.1l78.5-445.1H382.7z M343.7,388.3h-40.2l-43.9,252.2h58.7
	c19.4,0,34.5-5.3,45.4-15.8c10.9-10.5,18.4-27.7,22.6-51.6l17.9-101.4c1.6-9.1,2.5-17.3,2.5-24.7
	C406.8,407.9,385.8,388.3,343.7,388.3z"/>
</svg>
